<?xml version="1.0" encoding="UTF-8"?>
<svg width="80px" height="80px" viewBox="0 0 80 80" version="1.1" xmlns="http://www.w3.org/2000/svg" xmlns:xlink="http://www.w3.org/1999/xlink">
    <!-- Generator: Sketch 61 (89581) - https://sketch.com -->
    <title>lettertoxyz</title>
    <desc>Created with Sketch.</desc>
    <defs>
        <circle id="path-1" cx="40" cy="40" r="40"></circle>
    </defs>
    <g id="playground" stroke="none" stroke-width="1" fill="none" fill-rule="evenodd">
        <g id="Desktop-HD-Copy-6" transform="translate(-537.000000, -775.000000)">
            <g id="item1-copy-2" transform="translate(537.000000, 638.000000)">
                <g id="item-copy">
                    <g id="Group">
                        <g id="lettertoxyz" transform="translate(0.000000, 137.000000)">
                            <mask id="mask-2" fill="white">
                                <use xlink:href="#path-1"></use>
                            </mask>
                            <use id="Oval" fill="#FFFFFF" fill-rule="nonzero" xlink:href="#path-1"></use>
                            <path d="M42.9431438,46.3711459 C45.213569,47.7730321 47.4763497,48.8092089 49.9225991,48.8092089 C51.9636885,48.8092089 53.4161491,48.0854089 54.3640707,46.9578048 C54.7692308,46.4625732 54.9985667,46.2340048 55.3196369,46.2340048 C55.8165313,46.2340048 56,46.5540006 56,47.0492322 C56,48.9463499 53.6913521,55.3157895 49.112279,55.3157895 C46.0315337,55.3157895 43.1724797,52.7405854 40.7720975,50.1196677 C38.9144768,53.2815307 35.8337315,55.3157895 31.79742,55.3157895 C26.9431438,55.3157895 24,52.8777265 24,48.6720678 C24,44.5121229 27.6693741,41.8531104 31.4839943,41.8531104 C33.7085523,41.8531104 35.971333,42.5311967 37.8748208,43.4759461 C38.2341137,42.6150051 38.4175824,41.9369188 38.6927855,40.8550284 C33.4333493,39.9940874 27.4476828,37.0607928 27.4476828,31.9560985 C27.4476828,28.5656671 30.0315337,25.9447494 33.3874821,25.9447494 C37.515528,25.9447494 39.0979455,29.2437534 39.0979455,30.737067 C39.0979455,31.0951575 38.8686097,31.4151532 38.4634496,31.4151532 C38.1041567,31.4151532 37.5078834,31.0951575 36.9192547,31.0951575 C35.7878643,31.0951575 34.786431,32.1770479 34.786431,33.6246478 C34.786431,35.5674793 36.4605829,36.8322244 39.4113712,37.7388791 C41.4524606,29.3351808 44.5790731,25 49.4333493,25 C53.1027234,25 55.1438127,26.9885451 55.1438127,30.4246901 C55.1438127,35.0798667 50.4730053,39.910279 44.7166746,40.8626473 C44.1662685,42.7978598 43.5776398,44.6568828 42.9431438,46.3711459 Z M36.6315789,46.0271132 C35.5611792,45.2216906 34.392785,44.3684211 33.1037825,44.3684211 C31.7620137,44.3684211 30.7368421,45.3652313 30.7368421,46.5454545 C30.7368421,47.7735247 31.7620137,48.5789474 32.9304079,48.5789474 C34.6189258,48.5789474 35.8250101,47.3987241 36.6315789,46.0271132 Z M45.0526316,37.6315789 C47.6222556,37.0150873 50.1052632,34.1925956 50.1052632,32.2168514 C50.1052632,31.3329658 49.6360902,30.8947368 48.9936842,30.8947368 C47.8748872,30.8947368 46.5972932,31.7786224 45.0526316,37.6315789 Z" id="Shape" fill="#2D2D2D" fill-rule="nonzero" mask="url(#mask-2)"></path>
                        </g>
                    </g>
                </g>
            </g>
        </g>
    </g>
</svg>